<svg xmlns="http://www.w3.org/2000/svg" xmlns:xlink="http://www.w3.org/1999/xlink" width="500" zoomAndPan="magnify" viewBox="0 0 375 374.999991" height="500" preserveAspectRatio="xMidYMid meet" version="1.0"><defs><clipPath id="4426546f54"><path d="M 24 0 L 350.90625 0 L 350.90625 375 L 24 375 Z M 24 0 " clip-rule="nonzero"/></clipPath></defs><g clip-path="url(#4426546f54)"><path fill="#ffffff" d="M 350.761719 39.5625 L 350.761719 0 L 187.398438 163.453125 L 187.398438 249.449219 L 52.035156 113.949219 L 52.035156 67.574219 L 159.460938 175.066406 L 159.460938 135.503906 L 24.039062 0 C 24.039062 41.871094 24.039062 83.683594 24.039062 125.550781 L 159.460938 261.050781 L 159.460938 307.484375 L 24.039062 171.984375 L 24.039062 211.546875 C 78.492188 266.03125 132.941406 320.511719 187.398438 375 L 187.398438 289.003906 L 322.824219 153.5625 L 322.824219 199.933594 L 215.335938 307.484375 L 215.335938 347.046875 C 260.472656 301.882812 305.621094 256.710938 350.761719 211.546875 C 350.761719 169.671875 350.761719 127.859375 350.761719 85.996094 L 215.335938 221.496094 L 215.335938 175.066406 Z M 350.761719 39.5625 " fill-opacity="1" fill-rule="evenodd"/></g></svg>